<?xml version="1.0" encoding="utf-8" ?>
<svg baseProfile="full" height="500px" version="1.1" width="500px" xmlns="http://www.w3.org/2000/svg" xmlns:ev="http://www.w3.org/2001/xml-events" xmlns:xlink="http://www.w3.org/1999/xlink"><defs><clipPath id="border_clip"><rect height="500" width="500" x="0" y="0" /></clipPath></defs><polyline clip-path="url(#border_clip)" fill="none" points="250.5,250.5 253.46376665433,250.5 256.422328139427,250.32442460246705 259.36529240017194,249.97389052238842 262.28232216726497,249.44962902350488 265.16317126726113,248.75348159345177 267.9977206126283,247.8878934754666 270.7760137454109,246.85590507938295 273.488291809652,245.66114130208013 276.12502782973047,244.3077987949005 278.6769601742104,242.8006312227588 281.13512508765945,241.14493256672063 283.49088817616644,239.34651852870093 285.73597473596516,237.41170610359876 287.8624988186329,235.34729139062262 289.8629909307722,233.1605257217438 291.73042427087836,230.85909019112853 293.4582394112365,228.4510686750146 295.0403673381503,225.94491943680117 296.4712507695742,223.34944541709015 297.7458636752691,220.6737633130362 298.85972893091673,217.92727155561556 299.80893404418254,215.1196172972945 300.5901448974874,212.2606625260543 301.2006174592172,209.3604494247989 301.6382074222342,206.42916509782117 301.90137773583365,203.47710578822753 301.98920400469103,200.51464071200857 301.90137773583365,197.5521756357896 301.6382074222342,194.60011632619597 301.20061745921726,191.66883199921827 300.5901448974874,188.76861889796285 299.8089340441826,185.90966412672265 298.85972893091673,183.10200986840158 297.7458636752691,180.35551811098094 296.4712507695743,177.67983600692696 295.04036733815036,175.08436198721594 293.4582394112365,172.57821274900252 291.73042427087836,170.17019123288858 289.8629909307722,167.86875570227332 287.86249881863296,165.68199003339447 285.73597473596516,163.61757532041833 283.49088817616644,161.68276289531616" stroke="black" stroke-linecap="round" stroke-width="1" /><polyline clip-path="url(#border_clip)" fill="none" points="283.49088817616644,161.68276289531616 281.13512508765945,159.88434885729646 278.6769601742104,158.2286502012583 276.12502782973047,156.72148262911657 273.488291809652,155.36814012193696 270.7760137454109,154.1733763446341 267.99772061262826,153.14138794855046 265.16317126726113,152.27579983056526 262.2823221672649,151.57965240051215 259.3652924001719,151.05539090162858 256.42232813942695,150.70485682154998 253.46376665432993,150.52928142401703 250.47177365091108,150.52928142401703 247.48111976696853,150.61878828948988 244.49448204276163,150.7977218996688 241.51453392354284,151.06592208473916 238.54394286646212,151.42314876921222 235.58536795283166,151.869082186825 232.64145750788776,152.40332316677473 229.71484673018125,153.02539349103046 226.8081553327179,153.7347363224031 223.92398519796026,154.53071670299022 221.0649180487908,155.41262212254915 218.23351313752002,156.3796631562903 215.43230495500916,157.4309741715192 212.66380096195758,158.56561410249503 209.93047934438584,159.7825672928119 207.2347867953236,161.08074440454885 204.57913632468797,162.45898339337487 201.96590509931286,163.91605054873594 199.3974323150627,165.450641598193 196.87601710293538,167.06138287492254 194.40391647102854,168.7468325473344 191.98334328421174,170.50548190970628 189.61646428331267,172.33575673267967 187.30539814559057,174.23601867240848 185.0522135882334,176.2045667370984 182.85892751657548,178.23963880962526 180.7275032186942,180.33941322486817 178.65984860800143,182.50201040034682 176.6578145154023,184.7254945187021 174.7231930325512,187.007875260515 172.85771590768684,189.34710958591194" stroke="black" stroke-linecap="round" stroke-width="1" /><polyline clip-path="url(#border_clip)" fill="none" points="172.85771590768684,189.34710958591194 171.0630529954832,191.74110356336217 169.34081076230314,194.18771424403013 167.69253084819388,196.6847515800048 166.11968868691,199.22998038468918 164.62369218520058,201.8211223335952 163.2058804625419,204.4558580037525 161.86752265244428,207.13182894990607 160.60981676640552,209.84663981564438 159.43388862152847,212.59786047756765 158.34079083276237,215.3830282205774 157.33150187066957,218.19964994234002 156.4069251855622,221.04520438495103 155.5678883987916,223.91714439180234 154.81514256191525,226.81289918763238 154.14936148440373,229.72987667971816 153.57114113049016,232.66546577814924 153.08099908570136,235.61703873310694 152.67937409354886,238.58195348705618 152.36662566279392,241.5575560397449 152.1430337456385,244.5411828238937 152.0087984871302,247.53016308944927 151.9640400460052,250.52182129426737 152.0087984871302,253.51347949908546 152.1430337456385,256.50245976464106 152.36662566279392,259.48608654878984 152.67937409354886,262.46168910147856 153.08099908570136,265.4266038554278 153.57114113049013,268.3781768103855 154.1493614844037,271.3137659088166 154.81514256191525,274.2307434009024 155.56788839879158,277.12649819673237 156.40692518556216,279.9984382035837 157.33150187066954,282.8439926461947 158.34079083276234,285.66061436795735 159.43388862152847,288.44578211096706 160.6098167664055,291.19700277289036 161.86752265244425,293.91181363862864 163.20588046254187,296.58778458478224 164.62369218520053,299.22252025493947 166.11968868690997,301.8136622038455 167.69253084819383,304.3588910085299 169.34081076230308,306.85592834450455" stroke="black" stroke-linecap="round" stroke-width="1" /><polyline clip-path="url(#border_clip)" fill="none" points="169.34081076230308,306.85592834450455 171.06305299548313,309.3025390251725 172.85771590768678,311.69653300262274 174.72319303255114,314.0357673280197 176.6578145154022,316.31814806983255 178.65984860800134,318.54163218818786 180.72750321869415,320.7042293636665 182.8589275165754,322.8040037789094 185.05221358823331,324.83907585143623 187.30539814559052,326.8076239161262 189.61646428331258,328.70788585585495 191.98334328421166,330.5381606788284 194.40391647102845,332.2968100412002 196.87601710293526,333.9822597136121 199.3974323150626,335.59300099034164 201.96590509931272,337.12759203979874 204.57913632468782,338.58465919515976 207.23478679532343,339.96289818398577 209.93047934438567,341.2610752957227 212.6638009619574,342.4780284860396 215.432304955009,343.6126684170154 218.23351313751982,344.66397943224433 221.0649180487906,345.6310204659855 223.92398519796006,346.5129258855444 226.80815533271766,347.30890626613154 229.71484673018102,348.01824909750417 232.6414575078875,348.6403194217599 235.5853679528314,349.17456040170964 238.54394286646186,349.6204938193224 241.51453392354256,349.97772050379547 244.49448204276132,350.24592068886585 247.48111976696822,350.4248542990448 250.47177365091076,350.5143611645176 253.4637666543296,350.5143611645176 256.45442053827213,350.4248542990448 259.44105826247903,350.24592068886585 262.4210063816978,349.97772050379547 265.3915974387785,349.6204938193224 268.35017235240895,349.17456040170964 271.2940827973528,348.6403194217599 274.22069357505933,348.01824909750417 277.1273849725227,347.30890626613154 280.0115551072803,346.5129258855444" stroke="black" stroke-linecap="round" stroke-width="1" /><polyline clip-path="url(#border_clip)" fill="none" points="280.0115551072803,346.5129258855444 282.87062225644974,345.6310204659855 285.70202716772053,344.66397943224433 288.50323535023136,343.61266841701547 291.2717393432829,342.4780284860396 294.0050609608546,341.2610752957228 296.70075350991686,339.96289818398577 299.3564039805525,338.5846591951598 301.9696352059276,337.12759203979874 304.5381079901777,335.5930009903417 307.05952320230506,333.98225971361217 309.53162383421187,332.29681004120033 311.95219702102867,330.5381606788285 314.31907602192774,328.70788585585507 316.6301421596498,326.8076239161263 318.883326717007,324.8390758514364 321.0766127886649,322.80400377890953 323.20803708654614,320.7042293636666 325.2756916972389,318.541632188188 327.2777257898381,316.3181480698327 329.21234727268916,314.0357673280198 331.07782439755346,311.69653300262286 332.87248730975716,309.3025390251727 334.59472954293716,306.8559283445047 336.2430094570464,304.35889100853007 337.81585161833027,301.81366220384564 339.3118481200397,299.22252025493964 340.72965984269837,296.5877845847824 342.068017652796,293.9118136386288 343.3257235388348,291.1970027728905 344.50165168371177,288.4457821109673 345.59474947247793,285.6606143679575 346.6040384345707,282.8439926461949 347.5286151196781,279.99843820358393 348.36765190644866,277.12649819673265 349.120397743325,274.2307434009026 349.78617882083654,271.31376590881683 350.36439917475013,268.37817681038575 350.8545412195389,265.4266038554281 351.2561662116914,262.4616891014789 351.5689146424463,259.4860865487901 351.79250655960175,256.50245976464134 351.92674181811003,253.5134794990858" stroke="black" stroke-linecap="round" stroke-width="1" /><polyline clip-path="url(#border_clip)" fill="none" points="351.92674181811003,253.5134794990858 351.97150025923503,250.5218212942677 351.92674181811003,247.53016308944964 351.79250655960175,244.5411828238941 351.5689146424463,241.5575560397453 351.2561662116914,238.58195348705658 350.8545412195389,235.61703873310734 350.36439917475013,232.66546577814967 349.78617882083654,229.7298766797186 349.120397743325,226.81289918763284 348.36765190644866,223.91714439180282 347.5286151196781,221.04520438495152 346.6040384345707,218.19964994234053 345.59474947247793,215.38302822057793 344.50165168371177,212.5978604775682 343.3257235388348,209.84663981564495 342.068017652796,207.13182894990663 340.72965984269837,204.45585800375306 339.3118481200397,201.8211223335958 337.81585161833027,199.2299803846898 336.2430094570464,196.6847515800054 334.59472954293716,194.18771424403076 332.87248730975716,191.74110356336286 331.07782439755346,189.34710958591262 329.21234727268916,187.0078752605157 327.27772578983803,184.72549451870282 325.2756916972389,182.50201040034753 323.20803708654614,180.3394132248689 321.07661278866493,178.239638809626 318.883326717007,176.20456673709916 316.63014215964984,174.23601867240922 314.31907602192774,172.33575673268047 311.95219702102867,170.50548190970707 309.5316238342119,168.7468325473352 307.0595232023051,167.06138287492337 304.53810799017776,165.45064159819384 301.96963520592766,163.9160505487368 299.35640398055256,162.45898339337575 296.700753509917,161.08074440454976 294.00506096085473,159.78256729281281 291.271739343283,158.56561410249594 288.5032353502315,157.43097417152012 285.70202716772064,156.3796631562912" stroke="black" stroke-linecap="round" stroke-width="1" /><polyline clip-path="url(#border_clip)" fill="none" points="285.70202716772064,156.3796631562912 282.87062225644985,155.4126221225501 280.0115551072804,154.53071670299116 277.1273849725228,153.73473632240405 274.2206935750595,153.02539349103137 271.294082797353,152.40332316677566 268.3501723524091,151.86908218682595 265.39159743877866,151.42314876921313 262.421006381698,151.06592208474012 259.4410582624792,150.79772189966974 256.45442053827236,150.6187882894908 253.46376665432985,150.52928142401794" stroke="black" stroke-linecap="round" stroke-width="1" /></svg>